<?xml version="1.0" encoding="utf-8"?>
<svg id="svg2" width="600" height="600" viewBox="0 0 600 600" xmlns="http://www.w3.org/2000/svg">
  <defs id="defs393">
    <pattern id="pattern-1" x="0" y="0" width="20" height="20" patternUnits="userSpaceOnUse" viewBox="0 0 100 100">
      <path d="M 0 0 L 50 0 L 50 100 L 0 100 Z" style="fill: black;"/>
    </pattern>
    <pattern id="pattern-1-1" xmlns:xlink="http://www.w3.org/1999/xlink" xlink:href="#pattern-1" patternTransform="matrix(1, 0, 0, 1, 287.0226135253906, 301.6040954589844)"/>
    <radialGradient id="gradient-1" gradientUnits="userSpaceOnUse" cx="297.0226068496704" cy="311.60409593582153" r="308.6271667480469">
      <stop offset="0" style="stop-color: #bada55"/>
      <stop offset="1" style="stop-color: #758d29"/>
    </radialGradient>
    <linearGradient id="gradient-2" gradientUnits="userSpaceOnUse" x1="297.0226068496704" y1="-6.890594005584717" x2="297.0226068496704" y2="630.0987858772278">
      <stop style="stop-color: rgb(187, 218, 85);" offset="0"/>
      <stop style="stop-color: rgb(135, 165, 36);" offset="1"/>
    </linearGradient>
    <radialGradient id="gradient-3" gradientUnits="userSpaceOnUse" cx="297.0226068496704" cy="311.60409593582153" r="308.6271667480469">
      <stop style="stop-color: rgb(187, 218, 85);" offset="0"/>
      <stop style="stop-color: rgb(135, 165, 36);" offset="1"/>
    </radialGradient>
  </defs>
  <path d="M 546.7706909179688 469.1316833496094 C 558.4612426757812 452.0416259765625 568.5440063476562 433.46954345703125 576.7124633789062 413.5210266113281 C 588.2340087890625 385.3841552734375 595.13525390625 356.5028076171875 597.787841796875 327.7103271484375 C 605.6497802734375 242.02017211914062 575.7317504882812 157.17987060546875 517.3151245117188 95.22722625732422 C 489.0087890625 65.22553253173828 454.0103759765625 40.598358154296875 413.3697509765625 23.850059509277344 C 339.1247863769531 -6.746825218200684 259.8184814453125 -5.354050159454346 190.75543212890625 21.704069137573242 C 117.7757339477539 50.271175384521484 56.22648239135742 107.46659851074219 24.14849281311035 185.80548095703125 C 22.561384201049805 189.68142700195312 21.0591983795166 193.57691955566406 19.6473445892334 197.4786834716797 C -10.579181671142578 280.94049072265625 -1.143125057220459 369.8477478027344 38.940216064453125 442.79803466796875 C 70.7000503540039 500.598876953125 121.71358489990234 548.3690795898438 187.49124145507812 575.4764404296875 C 320.2258605957031 630.1773071289062 469.0929870605469 582.6212158203125 546.7706909179688 469.1316833496094 Z " id="path365" style="fill: rgb(160, 80, 0); stroke: rgb(0, 0, 0); stroke-width: 2px; stroke-linecap: square; stroke-linejoin: round;"/>
  <path d="M 200.78184509277344 98.75623321533203 Z " transform="matrix(0.9999999999999999, 0, 0, 0.9999999999999999, 0, -3.552713678800501e-15)" style="stroke: black; fill: none;"/>
</svg>