<?xml version="1.0" encoding="utf-8"?>
<svg id="svg2" width="500" height="500" xmlns="http://www.w3.org/2000/svg">
  <defs id="defs393"/>
  <g transform="matrix(0.99800399,0,0,0.99802391,-17.964072,72.35175)" id="g8">
    <g id="g10">
      <g id="g12">
        <g id="XMLID_2_">
          <g id="g15">
            <g id="XMLID_1_">
              <g id="g18">
                <path d="m 516.5,146.245 c 1.33,10.42 2,21 2,31.75 0,3.5 -0.09,7 -0.25,10.5 l -249.54,-10.5 247.75,-31.75 h 0.04 z" id="path20" style="fill:#ff0000"/>
                <path d="m 268.71,177.995 249.54,10.5 c -0.54,14.43 -2.38,28.54 -5.34,42.2 l -244.2,-52.66 h -0.08 -0.01 l -0.03,-0.04 h 0.12 z" id="path22"/>
                <path d="m 516.5,146.245 h -0.04 l -247.75,31.75 -0.12,-0.01 0.03,-0.03 0.02,-0.01 238.9,-73.2 h 0.04 c 4.13,13.38 7.13,27.25 8.92,41.5 z" id="path24"/>
                <path id="polygon26" style="fill:#ff0000" d="M 512.9099731445312 230.7050018310547 L 268.7099914550781 178.03500366210938 L 512.9099731445312 230.69500732421875 Z"/>
                <path d="m 512.91,230.705 c -2.95,14.01 -7.12,27.58 -12.37,40.57 l -0.08,-0.04 -231.75,-93.2 244.2,52.67 z" id="path28" style="fill:#ff0000"/>
                <path d="m 507.58,104.745 h -0.04 l -238.9,73.2 223.15,-112.49 h 0.04 c 3.56,7.05 6.8,14.29 9.68,21.7 2.24,5.77 4.27,11.63 6.07,17.59 z" id="path30" style="fill:#ff0000"/>
                <path d="m 491.83,65.455 c 3.57,7.05 6.8,14.29 9.68,21.7 -2.88,-7.41 -6.12,-14.65 -9.68,-21.7 z" id="path32" style="fill:#ff0000"/>
                <path d="m 500.46,271.245 0.08,0.04 c -5.29,13.22 -11.71,25.84 -19.08,37.79 h -0.05 l -212.73,-130.99 -0.01,-0.01 -0.04,-0.04 h 0.08 l 231.75,93.21 z" id="path34"/>
                <path d="m 490.61,63.075 c 0.41,0.79 0.819,1.58 1.22,2.38 h -0.04 l -223.15,112.49 -0.02,0.01 v -0.04 -0.01 L 469.54,29.285 c 3.88,5.23 7.57,10.63 11.03,16.18 1.7,2.71 3.35,5.47 4.939,8.25 0,0 0.011,0 0.011,0.01 0.88,1.54 1.739,3.09 2.59,4.64 0,0 0.01,0 0.01,0.01 0.84,1.56 1.68,3.13 2.49,4.7 z" id="path36"/>
                <path d="m 481.46,309.075 v 0.01 c -7.46,12.13 -15.91,23.58 -25.3,34.2 l -0.04,-0.04 -187.44,-165.16 212.73,130.99 h 0.05 z" id="path38" style="fill:#ff0000"/>
                <path d="m 469.54,29.285 -200.92,148.62 v -0.04 -0.01 l 172.88,-180.28 0.08,-0.08 c 1.28,1.23 2.54,2.46 3.79,3.71 8.75,8.76 16.81,18.13 24.17,28.08 z" id="path40" style="fill:#ff0000"/>
                <path d="m 456.16,343.285 v 0.01 c -3.5,3.96 -7.12,7.82 -10.87,11.55 -0.63,0.631 -1.26,1.25 -1.89,1.87 -5.681,5.551 -11.63,10.83 -17.82,15.82 L 268.54,178.045 v -0.01 -0.04 h 0.04 l 0.04,0.04 h 0.01 l 0.04,0.04 0.01,0.01 187.44,165.16 0.04,0.04 z" id="path42"/>
                <path d="m 441.58,-2.515 c 1.28,1.23 2.55,2.47 3.79,3.72 -1.25,-1.25 -2.51,-2.48 -3.79,-3.71 v -0.01 z" id="path44" style="fill:#ff0000"/>
                <path id="polygon46" d="M 441.57000732421875 -2.505000114440918 L 441.5799865722656 -2.505000114440918 L 441.5 -2.424999952316284 L 441.5 -2.434999942779541 Z"/>
                <path d="m 441.57,-2.505 -0.07,0.07 v 0.01 l -172.88,180.28 v -0.03 l 139.88,-206.87 0.08,-0.12 c 0.72,0.48 1.43,0.97 2.15,1.47 5.85,4.04 11.52,8.33 16.989,12.85 1.36,1.13 2.71,2.27 4.051,3.42 2.01,1.73 3.989,3.5 5.939,5.29 1.301,1.2 2.591,2.4 3.861,3.63 z" id="path48"/>
                <path d="m 268.54,178.045 157.04,194.49 c -4.79,3.9 -9.74,7.61 -14.81,11.13 -4.351,3.01 -8.801,5.891 -13.36,8.62 -1.521,0.91 -3.05,1.81 -4.59,2.68 -0.771,0.44 -1.54,0.88 -2.32,1.311 h -0.01 l -0.03,-0.03 -121.91,-218.1 -0.01,-0.03 v -0.01 -0.061 z" id="path50" style="fill:#ff0000"/>
                <path d="m 408.58,-29.175 c 0.72,0.49 1.44,0.98 2.15,1.48 -0.721,-0.5 -1.431,-0.99 -2.15,-1.47 v -0.01 z" id="path52"/>
                <path d="m 408.58,-29.175 v 0.01 c -0.73,-0.49 -1.46,-0.99 -2.19,-1.47 0.74,0.48 1.46,0.97 2.19,1.46 z" id="path54" style="fill:#ff0000"/>
                <path d="m 408.58,-29.165 -0.08,0.12 -139.88,206.87 102.92,-227.62 v -0.01 l 0.04,-0.07 c 8.1,3.67 15.97,7.75 23.59,12.23 2.28,1.34 4.53,2.71 6.771,4.12 0,0.01 0,0.01 0.01,0.01 1.479,0.94 2.96,1.9 4.43,2.87 0,0 0,0 0.01,0.01 0.729,0.48 1.459,0.98 2.189,1.47 z" id="path56" style="fill:#ff0000"/>
                <path d="m 401.95,-33.515 c 1.49,0.94 2.97,1.89 4.43,2.87 -1.47,-0.97 -2.95,-1.93 -4.43,-2.87 z" id="path58" style="fill:#ff0000"/>
                <path d="m 395.17,-37.645 c 2.28,1.33 4.54,2.71 6.771,4.12 -2.241,-1.41 -4.491,-2.78 -6.771,-4.12 z" id="path60" style="fill:#ff0000"/>
                <path d="m 390.49,396.275 0.01,0.01 c -10.75,6.06 -22.02,11.31 -33.71,15.7 11.69,-4.4 22.95,-9.65 33.7,-15.71 z" id="path62"/>
                <path d="m 390.46,396.245 0.03,0.03 c -10.75,6.06 -22.01,11.31 -33.7,15.71 -0.84,0.31 -1.68,0.62 -2.52,0.93 -0.83,0.3 -1.681,0.601 -2.521,0.9 l -83.2,-235.67 121.911,218.1 z" id="path64"/>
                <path d="m 371.58,-49.885 v 0.01 c -2.4,-1.09 -4.83,-2.14 -7.27,-3.15 2.44,1.01 4.87,2.06 7.27,3.14 z" id="path66"/>
                <path d="m 371.58,-49.875 -0.04,0.07 v 0.01 l -102.92,227.62 v 0.03 0.01 h -0.04 l 62.92,-241.83 v -0.04 c 3.47,0.89 6.91,1.86 10.311,2.9 2.56,0.78 5.09,1.6 7.609,2.46 4.2,1.44 8.34,2.98 12.44,4.62 0.819,0.33 1.63,0.66 2.45,1 2.44,1.01 4.87,2.06 7.27,3.15 z" id="path68"/>
                <path d="m 349.42,-58.645 c 4.2,1.43 8.34,2.97 12.44,4.62 -4.1,-1.64 -8.24,-3.18 -12.44,-4.62 z" id="path70"/>
                <path d="m 354.271,412.915 c -0.83,0.311 -1.681,0.61 -2.521,0.91 v -0.01 c 0.84,-0.299 1.69,-0.6 2.521,-0.9 z" id="path72"/>
                <path d="m 351.75,413.815 v 0.01 c -12.38,4.38 -25.17,7.76 -38.36,10.12 13.2,-2.37 25.98,-5.75 38.36,-10.13 z" id="path74" style="fill:#ff0000"/>
                <path d="m 268.55,178.146 83.2,235.67 c -12.38,4.38 -25.16,7.76 -38.36,10.13 -0.88,0.16 -1.76,0.31 -2.64,0.46 v -0.08 l -42.2,-246.18 z" id="path76" style="fill:#ff0000"/>
                <path d="m 341.811,-61.105 c 2.56,0.78 5.09,1.6 7.609,2.46 -2.52,-0.86 -5.05,-1.68 -7.609,-2.46 z" id="path78"/>
                <path d="m 331.5,-64.005 v 0.04 l -62.92,241.83 v 0.04 h -0.04 v -0.16 l 21.17,-248.79 v -0.08 c 8.96,0.76 17.771,1.99 26.42,3.65 2.59,0.5 5.17,1.04 7.73,1.62 2.56,0.58 5.11,1.19 7.64,1.85 z" id="path80" style="fill:#ff0000"/>
                <path d="m 316.13,-67.475 c 2.59,0.5 5.17,1.04 7.73,1.62 -2.56,-0.58 -5.14,-1.12 -7.73,-1.62 z" id="path82" style="fill:#ff0000"/>
                <path d="m 289.71,-71.135 c 8.96,0.76 17.771,1.99 26.42,3.66 -8.649,-1.66 -17.46,-2.89 -26.42,-3.65 v -0.01 z" id="path84" style="fill:#ff0000"/>
                <path d="m 310.75,424.325 v 0.08 c -0.86,0.15 -1.72,0.29 -2.58,0.43 -9.42,1.521 -19.03,2.5 -28.8,2.92 -0.07,0.011 -0.14,0.011 -0.21,0.011 -3.53,0.149 -7.09,0.22 -10.66,0.22 v -249.65 -0.01 -0.17 -0.04 h 0.04 l 0.01,0.03 42.2,246.179 z" id="path86"/>
                <path d="m 289.71,-71.125 v 0.08 l -21.17,248.79 -21.25,-248.79 v -0.01 -0.07 c 7,-0.59 14.09,-0.87 21.21,-0.87 7.17,0 14.21,0.29 21.21,0.87 z" id="path88" style="fill:#006600"/>
                <path id="polygon90" d="M 268.5899963378906 177.9949951171875 L 268.5899963378906 177.98500061035156 L 268.7099914550781 177.9949951171875 Z"/>
                <rect width="0.039999999" height="0.039999999" x="268.57999" y="177.91499" id="rect92" style="fill:#ff0000"/>
                <rect width="0.039999999" height="0.0099999998" x="268.57999" y="177.905" id="rect94" style="fill:#ff0000"/>
                <rect width="0.039999999" height="0.039999999" x="268.57999" y="177.86501" id="rect96" style="fill:#ff0000"/>
                <path id="polygon98" style="fill:#ff0000" d="M 268.5799865722656 177.9550018310547 L 268.6199951171875 177.9550018310547 L 268.5899963378906 177.98500061035156 L 268.5799865722656 177.98500061035156 Z"/>
                <path id="polygon100" d="M 268.6199951171875 178.03500366210938 L 268.5799865722656 177.9949951171875 L 268.5899963378906 177.9949951171875 Z"/>
                <rect width="0.0099999998" height="0.0099999998" x="268.57999" y="177.985" id="rect102" style="fill:#ff0000"/>
                <rect width="0.039999999" height="0.0099999998" x="268.54001" y="177.985" id="rect104" style="fill:#ff0000"/>
                <rect width="0.039999999" height="0.029999999" x="268.54001" y="177.955" id="rect106" style="fill:#ff0000"/>
                <rect width="0.039999999" height="0.039999999" x="268.54001" y="177.91499" id="rect108"/>
                <rect width="0.039999999" height="0.0099999998" x="268.54001" y="177.905" id="rect110"/>
                <rect width="0.039999999" height="0.0099999998" x="268.5" y="178.035" id="rect112"/>
                <rect width="0.039999999" height="0.0099999998" x="268.5" y="178.105" id="rect114"/>
                <path id="polygon116" d="M 268.5 178.10499572753906 L 268.5 178.0749969482422 L 268.5 178.0449981689453 L 268.5400085449219 178.0449981689453 L 268.5400085449219 178.10499572753906 Z"/>
                <rect width="0.039999999" height="0.039999999" x="268.5" y="177.995" id="rect118" style="fill:#ff0000"/>
                <path id="polygon120" style="fill:#ff0000" d="M 268.5 177.9949951171875 L 268.5 177.9550018310547 L 268.5400085449219 177.9550018310547 L 268.5400085449219 177.98500061035156 L 268.5400085449219 177.9949951171875 Z"/>
                <path d="m 268.54,177.915 v 0.04 h -0.04 l -0.04,-0.09 -102.96,-227.66 -0.04,-0.08 c 6.39,-2.9 12.95,-5.53 19.63,-7.89 1.67,-0.59 3.35,-1.16 5.04,-1.72 0.85,-0.28 1.69,-0.55 2.54,-0.82 1.7,-0.54 3.41,-1.06 5.12,-1.56 0.85,-0.25 1.71,-0.5 2.57,-0.74 1.72,-0.48 3.45,-0.95 5.18,-1.39 v 0.03 l 63,241.87 v 0.01 z" id="path122" style="fill:#ff0000"/>
                <path d="m 268.54,177.745 v 0.16 l -63,-241.87 v -0.03 -0.01 c 10.13,-2.63 20.51,-4.64 31.1,-5.99 1.76,-0.22 3.53,-0.43 5.31,-0.62 1.77,-0.19 3.56,-0.36 5.34,-0.51 v 0.07 0.01 l 21.25,248.79 z" id="path124"/>
                <path d="m 268.5,427.985 v 0.01 c -14.38,0 -28.5,-1.21 -42.21,-3.58 v -0.08 -0.01 l 42.21,-245.99 v 249.65 z" id="path126" style="fill:#ff0000"/>
                <path d="m 268.5,178.325 v 0.01 l -42.21,245.99 v 0.01 0.08 c -14.12,-2.34 -27.83,-5.91 -41,-10.58 v -0.01 l 83.21,-235.67 v 0.17 z" id="path128"/>
                <path d="m 268.5,178.115 v 0.04 l -83.21,235.67 c -10.97,-3.87 -21.58,-8.47 -31.76,-13.76 -2.36,-1.221 -4.68,-2.48 -6.99,-3.78 l 0.04,-0.04 121.92,-218.13 z" id="path130" style="fill:#ff0000"/>
                <path d="m 268.5,178.105 v 0.01 l -121.92,218.13 -0.04,0.04 c -2.33,-1.3 -4.63,-2.63 -6.91,-3.99 -1.52,-0.91 -3.03,-1.84 -4.52,-2.779 -5.24,-3.301 -10.34,-6.79 -15.3,-10.471 -1.41,-1.05 -2.82,-2.12 -4.21,-3.2 -1.39,-1.09 -2.77,-2.18 -4.14,-3.3 v -0.01 L 268.5,178.075 v 0.03 z" id="path132"/>
                <path d="m 268.5,178.045 v 0.03 l -157.04,194.46 c -6.91,-5.54 -13.48,-11.45 -19.73,-17.69 -1.88,-1.869 -3.72,-3.77 -5.52,-5.689 -1.81,-1.93 -3.59,-3.89 -5.34,-5.87 l 0.04,-0.04 187.46,-165.12 0.08,-0.06 0.02,-0.01 h 0.01 l 0.02,-0.011 z" id="path134" style="fill:#ff0000"/>
                <path id="polygon136" d="M 268.4800109863281 178.0449981689453 L 268.5 178.03500366210938 L 268.5 178.0449981689453 L 268.4800109863281 178.05599975585938 Z"/>
                <path d="m 268.5,177.995 v 0.04 l -0.02,0.01 -231.9,93.2 -0.12,0.04 c -1.96,-4.88 -3.77,-9.83 -5.43,-14.86 -2.77,-8.38 -5.1,-16.96 -6.95,-25.71 v -0.01 l 244.36,-52.71 h 0.02 0.04 z" id="path138"/>
                <rect width="0.039999999" height="0.039999999" x="268.45999" y="177.955" id="rect140"/>
                <path d="m 268.46,177.865 0.04,0.09 h -0.04 L 67.5,29.285 c 8.38,-11.37 17.75,-22 27.96,-31.79 l 0.08,0.08 172.92,180.29 z" id="path142"/>
                <path id="polygon144" d="M 268.4800109863281 178.05599975585938 L 268.4700012207031 178.05599975585938 L 268.4800109863281 178.0449981689453 Z"/>
                <path id="polygon146" style="fill:#ff0000" d="M 268.45001220703125 178.06500244140625 L 268.42999267578125 178.0749969482422 L 36.58000183105469 271.2449951171875 L 268.4800109863281 178.0449981689453 L 268.4700012207031 178.05599975585938 Z"/>
                <path d="m 268.46,177.955 v 0.04 h -0.02 L 20.58,146.245 H 20.5 c 1.57,-12.47 4.06,-24.65 7.42,-36.49 0.48,-1.68 0.98,-3.37 1.5,-5.04 l 0.08,0.03 238.91,73.21 h 0.05 z" id="path148" style="fill:#ff0000"/>
                <path d="m 165.5,-49.795 102.96,227.66 -139.96,-206.91 -0.08,-0.08 c 9.48,-6.43 19.43,-12.22 29.79,-17.33 2.4,-1.18 4.81,-2.32 7.25,-3.42 l 0.04,0.08 z" id="path150"/>
                <path d="M 128.5,-29.045 268.46,177.865 95.54,-2.425 95.46,-2.505 c 10.16,-9.78 21.2,-18.7 32.95,-26.62 h 0.01 l 0.08,0.08 z" id="path152" style="fill:#ff0000"/>
                <path d="m 268.46,177.955 h -0.05 L 45.21,65.455 h -0.04 c 6.41,-12.71 13.87,-24.83 22.33,-36.17 l 200.96,148.67 z" id="path154" style="fill:#ff0000"/>
                <path d="m 268.44,177.995 -244.36,52.71 c -0.22,-0.99 -0.42,-1.99 -0.63,-2.99 -0.84,-4.14 -1.58,-8.34 -2.21,-12.569 -1.31,-8.74 -2.15,-17.641 -2.49,-26.65 h 0.04 l 249.65,-10.501 z" id="path156" style="fill:#ff0000"/>
                <path d="m 268.44,177.995 -249.65,10.5 h -0.04 c -0.04,-0.87 -0.08,-1.75 -0.11,-2.63 -0.06,-1.74 -0.1,-3.5 -0.12,-5.24 -0.01,-0.88 -0.02,-1.76 -0.02,-2.63 0,-10.75 0.67,-21.32 2,-31.75 h 0.08 l 247.86,31.75 z" id="path158"/>
                <path d="m 268.43,178.075 -0.06,0.03 -212.75,130.96 v 0.01 l -0.04,0.04 c -1.86,-2.99 -3.65,-6.03 -5.37,-9.1 -5.16,-9.221 -9.75,-18.82 -13.75,-28.73 l 0.12,-0.04 231.85,-93.17 z" id="path160" style="fill:#ff0000"/>
                <path d="m 268.41,177.955 -238.91,-73.21 -0.08,-0.03 v -0.01 c 0.78,-2.55 1.6,-5.09 2.45,-7.61 0.29,-0.84 0.58,-1.68 0.87,-2.52 3.54,-10.02 7.68,-19.75 12.43,-29.12 h 0.04 l 223.2,112.5 z" id="path162"/>
                <path d="m 268.37,178.115 -187.46,165.13 -0.04,0.04 c -8.19,-9.3 -15.69,-19.19 -22.44,-29.63 -0.96,-1.5 -1.91,-3 -2.84,-4.521 0,-0.01 -0.01,-0.01 -0.01,-0.02 l 0.04,-0.04 212.75,-130.959 z" id="path164"/>
                <path id="polygon166" d="M 55.619998931884766 309.07501220703125 L 55.619998931884766 309.06500244140625 L 268.3699951171875 178.11500549316406 Z"/>
                <path d="m 236.64,-69.995 c 1.76,-0.23 3.53,-0.43 5.31,-0.62 -1.78,0.19 -3.55,0.4 -5.31,0.62 z" id="path168"/>
                <path d="m 165.46,-49.885 v 0.01 c -2.44,1.1 -4.85,2.24 -7.25,3.42 2.4,-1.18 4.81,-2.32 7.25,-3.43 z" id="path170"/>
                <path d="m 128.41,-29.135 c 9.48,-6.43 19.43,-12.22 29.8,-17.32 -10.36,5.11 -20.31,10.9 -29.79,17.33 h -0.01 v -0.01 z" id="path172"/>
                <path d="m 45.16,65.455 h 0.01 c -4.75,9.37 -8.89,19.101 -12.43,29.12 3.53,-10.019 7.67,-19.75 12.42,-29.12 z" id="path174"/>
                <path d="m 31.87,97.095 c -0.85,2.521 -1.67,5.061 -2.45,7.61 h -0.01 c 0.78,-2.559 1.6,-5.1 2.46,-7.61 z" id="path176"/>
                <path d="m 29.42,104.705 v 0.01 c -0.52,1.67 -1.02,3.36 -1.5,5.04 0.48,-1.689 0.97,-3.37 1.49,-5.05 h 0.01 z" id="path178" style="fill:#ff0000"/>
                <path d="m 21.24,215.146 c 0.63,4.229 1.37,8.43 2.21,12.569 -0.84,-4.15 -1.58,-8.34 -2.21,-12.569 z" id="path180" style="fill:#ff0000"/>
                <path d="m 18.52,180.625 c 0.02,1.74 0.06,3.5 0.12,5.24 -0.06,-1.74 -0.1,-3.5 -0.12,-5.24 z" id="path182"/>
              </g>
              <g id="g184">
                <path d="m 268.5,427.995 c -14.38,0 -28.5,-1.21 -42.21,-3.58 -14.12,-2.34 -27.83,-5.91 -41,-10.58 -10.97,-3.87 -21.58,-8.47 -31.76,-13.77 -2.36,-1.221 -4.68,-2.48 -6.99,-3.771 -2.33,-1.3 -4.63,-2.63 -6.91,-4 -1.52,-0.91 -3.03,-1.84 -4.52,-2.779 -5.24,-3.301 -10.34,-6.79 -15.3,-10.471 -1.41,-1.05 -2.82,-2.12 -4.21,-3.2 -1.39,-1.079 -2.77,-2.18 -4.14,-3.289 l -0.01,-0.011 c -6.91,-5.55 -13.49,-11.46 -19.72,-17.7 -1.88,-1.869 -3.72,-3.77 -5.52,-5.689 -1.82,-1.92 -3.59,-3.87 -5.34,-5.85 -8.2,-9.29 -15.7,-19.2 -22.44,-29.65 -0.96,-1.5 -1.91,-3 -2.84,-4.521 0,-0.01 -0.01,-0.01 -0.01,-0.02 -1.86,-2.99 -3.65,-6.03 -5.37,-9.1 -5.17,-9.221 -9.76,-18.811 -13.75,-28.71 -1.96,-4.881 -3.77,-9.841 -5.43,-14.881 -2.77,-8.38 -5.1,-16.96 -6.95,-25.71 v -0.01 c -0.22,-0.99 -0.42,-1.99 -0.63,-2.99 -0.84,-4.14 -1.58,-8.34 -2.21,-12.569 -1.31,-8.74 -2.15,-17.641 -2.49,-26.65 -0.04,-0.87 -0.08,-1.75 -0.11,-2.63 -0.06,-1.74 -0.1,-3.5 -0.12,-5.24 -0.01,-0.88 -0.02,-1.76 -0.02,-2.63 0,-10.75 0.67,-21.32 2,-31.75 1.57,-12.47 4.06,-24.65 7.42,-36.49 0.48,-1.68 0.98,-3.37 1.5,-5.04 v -0.01 c 0.78,-2.55 1.6,-5.09 2.45,-7.61 0.29,-0.84 0.58,-1.68 0.87,-2.52 3.54,-10.02 7.68,-19.75 12.43,-29.12 6.41,-12.71 13.87,-24.83 22.33,-36.17 8.38,-11.37 17.75,-22 27.96,-31.79 10.16,-9.78 21.2,-18.7 32.95,-26.62 h 0.01 c 9.48,-6.43 19.43,-12.22 29.79,-17.33 2.4,-1.18 4.81,-2.32 7.25,-3.42 6.39,-2.9 12.95,-5.53 19.63,-7.89 1.67,-0.59 3.35,-1.17 5.04,-1.72 0.85,-0.28 1.69,-0.55 2.54,-0.82 1.7,-0.54 3.41,-1.06 5.12,-1.56 0.85,-0.25 1.71,-0.5 2.57,-0.74 1.72,-0.49 3.45,-0.95 5.18,-1.4 10.13,-2.63 20.51,-4.64 31.1,-5.99 1.76,-0.22 3.53,-0.43 5.31,-0.62 1.77,-0.19 3.56,-0.36 5.34,-0.51 7,-0.59 14.09,-0.87 21.21,-0.87 7.17,0 14.21,0.29 21.21,0.87 8.96,0.76 17.771,1.99 26.42,3.65 2.59,0.5 5.17,1.04 7.73,1.62 2.56,0.58 5.109,1.19 7.64,1.85 3.47,0.89 6.91,1.86 10.311,2.9 2.56,0.78 5.09,1.6 7.609,2.46 4.2,1.44 8.34,2.98 12.44,4.62 0.819,0.33 1.63,0.66 2.45,1 2.439,1.01 4.869,2.06 7.27,3.15 8.1,3.67 15.97,7.75 23.59,12.23 2.28,1.34 4.53,2.71 6.771,4.12 0,0.01 0,0.01 0.01,0.01 1.479,0.94 2.96,1.9 4.43,2.87 0,0 0,0 0.01,0.01 0.73,0.48 1.46,0.98 2.19,1.47 0.72,0.48 1.43,0.97 2.15,1.47 5.85,4.04 11.52,8.33 16.989,12.85 1.36,1.12 2.71,2.26 4.051,3.42 2.01,1.73 3.989,3.49 5.939,5.29 1.3,1.19 2.59,2.4 3.86,3.63 h 0.01 c 1.28,1.23 2.54,2.46 3.79,3.71 8.75,8.76 16.81,18.13 24.17,28.08 3.88,5.23 7.57,10.63 11.03,16.18 1.7,2.71 3.35,5.46 4.939,8.25 0,0 0.011,0 0.011,0.01 0.88,1.53 1.739,3.08 2.59,4.64 0,0 0.01,0 0.01,0.01 0.85,1.55 1.68,3.12 2.49,4.7 0.41,0.79 0.819,1.58 1.22,2.38 3.56,7.05 6.8,14.29 9.68,21.7 2.24,5.77 4.271,11.63 6.07,17.59 4.13,13.38 7.13,27.25 8.92,41.5 1.33,10.42 2,21 2,31.75 0,3.5 -0.09,7 -0.25,10.5 -0.54,14.43 -2.38,28.54 -5.34,42.2 v 0.01 c -2.95,14.01 -7.12,27.58 -12.37,40.57 v 0.01 c -5.29,13.22 -11.71,25.84 -19.08,37.79 v 0.01 c -7.46,12.13 -15.91,23.58 -25.3,34.2 v 0.01 c -3.5,3.96 -7.12,7.82 -10.87,11.55 -0.62,0.631 -1.25,1.25 -1.89,1.87 -5.681,5.551 -11.63,10.83 -17.82,15.82 -4.79,3.9 -9.74,7.61 -14.81,11.13 -4.351,3.021 -8.801,5.891 -13.36,8.62 -1.521,0.91 -3.05,1.81 -4.59,2.68 -0.771,0.44 -1.54,0.88 -2.32,1.311 h -0.01 c -10.75,6.06 -22.01,11.31 -33.7,15.71 -0.84,0.31 -1.68,0.62 -2.52,0.93 -0.83,0.3 -1.681,0.601 -2.521,0.9 -12.38,4.38 -25.16,7.76 -38.36,10.13 -0.88,0.16 -1.76,0.31 -2.64,0.46 -0.86,0.15 -1.72,0.29 -2.58,0.43 -9.42,1.53 -19.03,2.51 -28.8,2.92 -0.07,0.011 -0.14,0.011 -0.21,0.011 -3.529,0.159 -7.089,0.229 -10.659,0.229 z" id="path186" style="fill:none;stroke:#000"/>
                <path id="polyline188" style="fill:none;stroke:#000" d="M 268.5 178.3350067138672 L 268.5 427.9849853515625 L 268.5 427.9949951171875"/>
                <path id="line190" style="fill:none;stroke:#000" d="M 268.54998779296875 178.14599609375 L 310.75 424.32501220703125"/>
                <path id="polyline192" style="fill:none;stroke:#000" d="M 268.54998779296875 178.14599609375 L 351.75 413.81500244140625 L 351.75 413.82501220703125"/>
                <path id="polyline194" style="fill:none;stroke:#000" d="M 268.5400085449219 178.11500549316406 L 268.54998779296875 178.14599609375 L 390.4599914550781 396.2449951171875"/>
                <path id="polyline196" style="fill:none;stroke:#000" d="M 268.5400085449219 178.0449981689453 L 425.5799865722656 372.5350036621094 L 425.6199951171875 372.57501220703125"/>
                <path id="line198" style="fill:none;stroke:#000" d="M 268.67999267578125 178.0850067138672 L 456.1199951171875 343.2449951171875"/>
                <path id="polyline200" style="fill:none;stroke:#000" d="M 268.6300048828125 178.03500366210938 L 268.6700134277344 178.0749969482422 L 268.67999267578125 178.0850067138672 L 481.4100036621094 309.07501220703125"/>
                <path id="line202" style="fill:none;stroke:#000" d="M 268.7099914550781 178.03500366210938 L 500.4599914550781 271.2449951171875"/>
                <path id="polyline204" style="fill:none;stroke:#000" d="M 268.5799865722656 177.9949951171875 L 268.6199951171875 178.03500366210938 L 268.6300048828125 178.03500366210938 L 268.7099914550781 178.03500366210938 L 512.9099731445312 230.7050018310547"/>
                <path id="line206" style="fill:none;stroke:#000" d="M 268.7099914550781 177.9949951171875 L 518.25 188.4949951171875"/>
                <path id="polyline208" style="fill:none;stroke:#000" d="M 268.5899963378906 177.9949951171875 L 268.7099914550781 177.9949951171875 L 516.4600219726562 146.2449951171875"/>
                <path id="line210" style="fill:none;stroke:#000" d="M 268.6400146484375 177.94500732421875 L 507.5400085449219 104.74500274658203"/>
                <path id="polyline212" style="fill:none;stroke:#000" d="M 268.5799865722656 177.9949951171875 L 268.5899963378906 177.9949951171875 L 268.5899963378906 177.98500061035156 L 268.6199951171875 177.9550018310547"/>
                <path id="polyline214" style="fill:none;stroke:#000" d="M 268.6199951171875 177.9550018310547 L 268.6400146484375 177.94500732421875 L 491.7900085449219 65.45500183105469"/>
                <path id="polyline216" style="fill:none;stroke:#000" d="M 268.5400085449219 177.9949951171875 L 268.5799865722656 177.9949951171875 L 268.5799865722656 177.98500061035156 L 268.5799865722656 177.9550018310547 L 268.6199951171875 177.9550018310547 L 268.6199951171875 177.9149932861328 L 268.6199951171875 177.90499877929688 L 469.5400085449219 29.28499984741211 L 469.5799865722656 29.28499984741211"/>
                <path id="line218" style="fill:none;stroke:#000" d="M 268.6199951171875 177.85499572753906 L 441.5 -2.424999952316284"/>
                <path id="line220" style="fill:none;stroke:#000" d="M 268.6199951171875 177.8249969482422 L 408.5 -29.045000076293945"/>
                <path id="polyline222" style="fill:none;stroke:#000" d="M 268.5799865722656 177.90499877929688 L 268.6199951171875 177.90499877929688 L 268.6199951171875 177.86500549316406"/>
                <path id="polyline224" style="fill:none;stroke:#000" d="M 268.5799865722656 177.86500549316406 L 268.6199951171875 177.86500549316406 L 268.6199951171875 177.85499572753906 L 268.6199951171875 177.8249969482422 L 371.5400085449219 -49.79499816894531"/>
                <path id="polyline226" style="fill:none;stroke:#000" d="M 268.5400085449219 177.9550018310547 L 268.5799865722656 177.9550018310547 L 268.5799865722656 177.9149932861328 L 268.5799865722656 177.90499877929688"/>
                <path id="polyline228" style="fill:none;stroke:#000" d="M 268.5400085449219 177.90499877929688 L 268.5799865722656 177.90499877929688 L 268.5799865722656 177.86500549316406 L 331.5 -63.96500015258789"/>
                <path id="line230" style="fill:none;stroke:#000" d="M 268.5400085449219 177.7449951171875 L 289.7099914550781 -71.04499816894531"/>
                <path id="polyline232" style="fill:none;stroke:#000" d="M 268.5400085449219 177.90499877929688 L 268.5400085449219 177.7449951171875 L 247.2899932861328 -71.04499816894531"/>
                <path id="polyline234" style="fill:none;stroke:#000" d="M 268.5400085449219 177.9550018310547 L 268.5400085449219 177.9149932861328 L 268.5400085449219 177.90499877929688 L 205.5399932861328 -63.96500015258789"/>
                <path id="line236" style="fill:none;stroke:#000" d="M 268.4599914550781 177.86500549316406 L 165.5 -49.79499816894531"/>
                <path id="line238" style="fill:none;stroke:#000" d="M 268.4599914550781 177.86500549316406 L 128.5 -29.045000076293945"/>
                <path id="polyline240" style="fill:none;stroke:#000" d="M 268.5400085449219 177.9949951171875 L 268.5400085449219 177.98500061035156 L 268.5400085449219 177.9550018310547 L 268.5 177.9550018310547 L 268.4599914550781 177.86500549316406 L 95.54000091552734 -2.424999952316284"/>
                <path id="polyline242" style="fill:none;stroke:#000" d="M 268.4599914550781 177.9550018310547 L 67.5 29.28499984741211 L 67.45999908447266 29.28499984741211"/>
                <path id="line244" style="fill:none;stroke:#000" d="M 268.4100036621094 177.9550018310547 L 45.209999084472656 65.45500183105469"/>
                <path id="polyline246" style="fill:none;stroke:#000" d="M 268.5 177.9949951171875 L 268.5 177.9550018310547 L 268.4599914550781 177.9550018310547"/>
                <path id="polyline248" style="fill:none;stroke:#000" d="M 268.4599914550781 177.9949951171875 L 268.4599914550781 177.9550018310547 L 268.4100036621094 177.9550018310547 L 29.5 104.74500274658203"/>
                <path id="line250" style="fill:none;stroke:#000" d="M 268.44000244140625 177.9949951171875 L 20.579999923706055 146.2449951171875"/>
                <path id="line252" style="fill:none;stroke:#000" d="M 268.44000244140625 177.9949951171875 L 18.790000915527344 188.4949951171875"/>
                <path id="polyline254" style="fill:none;stroke:#000" d="M 268.5 177.9949951171875 L 268.4599914550781 177.9949951171875 L 268.44000244140625 177.9949951171875 L 24.079999923706055 230.7050018310547"/>
                <path id="line256" style="fill:none;stroke:#000" d="M 268.4800109863281 178.0449981689453 L 36.58000183105469 271.2449951171875"/>
                <path id="line258" style="fill:none;stroke:#000" d="M 268.3699951171875 178.11500549316406 L 55.619998931884766 309.07501220703125"/>
                <path id="polyline260" style="fill:none;stroke:#000" d="M 268.5400085449219 177.9949951171875 L 268.5 177.9949951171875 L 268.5 178.03500366210938 L 268.4800109863281 178.0449981689453 L 268.4800109863281 178.05599975585938 L 268.4700012207031 178.05599975585938 L 268.45001220703125 178.06500244140625 L 268.42999267578125 178.0749969482422 L 268.3699951171875 178.11500549316406 L 80.91000366210938 343.2449951171875"/>
                <path id="polyline262" style="fill:none;stroke:#000" d="M 268.5 178.0749969482422 L 111.45999908447266 372.5350036621094 L 111.44999694824219 372.5450134277344 L 111.41000366210938 372.57501220703125"/>
                <path id="line264" style="fill:none;stroke:#000" d="M 268.5 178.11500549316406 L 146.5800018310547 396.2449951171875"/>
                <path id="line266" style="fill:none;stroke:#000" d="M 268.5 178.15499877929688 L 185.2899932861328 413.82501220703125"/>
                <path id="polyline268" style="fill:none;stroke:#000" d="M 268.5400085449219 178.03500366210938 L 268.5 178.03500366210938 L 268.5 178.0449981689453 L 268.5 178.0749969482422 L 268.5 178.10499572753906 L 268.5 178.11500549316406"/>
                <path id="polyline270" style="fill:none;stroke:#000" d="M 268.5400085449219 177.9949951171875 L 268.5400085449219 178.03500366210938 L 268.5400085449219 178.0449981689453 L 268.5400085449219 178.10499572753906 L 268.5400085449219 178.11500549316406 L 268.5 178.11500549316406 L 268.5 178.15499877929688 L 268.5 178.3249969482422 L 268.5 178.3350067138672 L 226.2899932861328 424.32501220703125"/>
              </g>
            </g>
          </g>
        </g>
      </g>
    </g>
    <g id="g272">
      <text transform="translate(260.2056,-43.334)" id="text274" style="font-size: 22.5806px; fill: rgb(255, 255, 255); font-family: Verdana; white-space: pre;"><tspan>0</tspan></text>
      <text transform="matrix(0.6561,-0.7547,0.7547,0.6561,92.939,42.5786)" id="text276" style="font-size: 22.5811px; fill: rgb(255, 255, 255); font-family: Verdana; white-space: pre;"><tspan>28</tspan></text>
      <text transform="matrix(0.9848,-0.1736,0.1736,0.9848,217.835,-38.2451)" id="text278" style="font-size: 22.5803px; fill: rgb(255, 255, 255); font-family: Verdana; white-space: pre;"><tspan>26</tspan></text>
      <text transform="matrix(-0.829,0.5592,-0.5592,-0.829,406.3203,354.4316)" id="text280" style="font-size: 22.58px; fill: rgb(255, 255, 255); font-family: Verdana; white-space: pre;"><tspan>30</tspan></text>
      <text transform="matrix(-0.7193,0.6947,-0.6947,-0.7193,431.1611,328.4082)" id="text282" style="font-size: 22.5807px; fill: rgb(255, 255, 255); font-family: Verdana; white-space: pre;"><tspan>11</tspan></text>
      <text transform="matrix(0.5299,-0.848,0.848,0.5299,77.4844,69.9102)" id="text284" style="font-size: 22.5795px; fill: rgb(255, 255, 255); font-family: Verdana; white-space: pre;"><tspan>7</tspan></text>
      <text transform="matrix(-0.5878,-0.809,0.809,-0.5878,99.8999,320.7998)" id="text286" style="font-size: 22.5805px; fill: rgb(255, 255, 255); font-family: Verdana; white-space: pre;"><tspan>20</tspan></text>
      <text transform="matrix(0.9848,0.1736,-0.1736,0.9848,292.127,-40.9053)" id="text288" style="font-size: 22.5803px; fill: rgb(255, 255, 255); font-family: Verdana; white-space: pre;"><tspan>32</tspan></text>
      <text transform="matrix(0.2079,0.9781,-0.9781,0.2079,483.0469,116.3809)" id="text290" style="font-size: 22.5795px; fill: rgb(255, 255, 255); font-family: Verdana; white-space: pre;"><tspan>17</tspan></text>
      <text transform="matrix(-0.9962,-0.0872,0.0872,-0.9962,258.0562,398.3291)" id="text292" style="font-size: 22.5809px; fill: rgb(255, 255, 255); font-family: Verdana; white-space: pre;"><tspan>5</tspan></text>
      <text transform="matrix(0.0349,-0.9994,0.9994,0.0349,48.165,183.7227)" id="text294" style="font-size: 22.5809px; fill: rgb(255, 255, 255); font-family: Verdana; white-space: pre;"><tspan>22</tspan></text>
      <text transform="matrix(0.0349,0.9994,-0.9994,0.0349,491.2051,155.1602)" id="text296" style="font-size: 22.5809px; fill: rgb(255, 255, 255); font-family: Verdana; white-space: pre;"><tspan>34</tspan></text>
      <text transform="matrix(0.9455,0.3256,-0.3256,0.9455,328.1631,-33.4512)" id="text298" style="font-size: 22.5805px; fill: rgb(255, 255, 255); font-family: Verdana; white-space: pre;"><tspan>15</tspan></text>
      <text transform="matrix(0.9455,-0.3256,0.3256,0.9455,188,-26.8262)" id="text300" style="font-size: 22.5805px; fill: rgb(255, 255, 255); font-family: Verdana; white-space: pre;"><tspan>3</tspan></text>
      <text transform="matrix(-0.9659,-0.2588,0.2588,-0.9659,226.3936,398.0381)" id="text302" style="font-size: 22.58px; fill: rgb(255, 255, 255); font-family: Verdana; white-space: pre;"><tspan>24</tspan></text>
      <text transform="matrix(-0.1219,-0.9925,0.9925,-0.1219,50.0112,214.1543)" id="text304" style="font-size: 22.5797px; fill: rgb(255, 255, 255); font-family: Verdana; white-space: pre;"><tspan>9</tspan></text>
      <text transform="matrix(-0.5878,0.809,-0.809,-0.5878,456.5527,298.9902)" id="text306" style="font-size: 22.5805px; fill: rgb(255, 255, 255); font-family: Verdana; white-space: pre;"><tspan>36</tspan></text>
      <text transform="matrix(-0.454,0.891,-0.891,-0.454,473.832,264.8887)" id="text308" style="font-size: 22.5806px; fill: rgb(255, 255, 255); font-family: Verdana; white-space: pre;"><tspan>13</tspan></text>
      <text transform="matrix(-0.7193,-0.6947,0.6947,-0.7193,118.6035,343.5049)" id="text310" style="font-size: 22.5807px; fill: rgb(255, 255, 255); font-family: Verdana; white-space: pre;"><tspan>1</tspan></text>
      <text transform="matrix(-0.2924,0.9563,-0.9563,-0.2924,485.8164,230.0801)" id="text312" style="font-size: 22.5807px; fill: rgb(255, 255, 255); font-family: Verdana; white-space: pre;"><tspan>27</tspan></text>
      <text transform="matrix(-0.9962,0.0872,-0.0872,-0.9962,301.8975,399.6807)" id="text314" style="font-size: 22.5809px; fill: rgb(255, 255, 255); font-family: Verdana; white-space: pre;"><tspan>10</tspan></text>
      <text transform="matrix(0.3746,0.9272,-0.9272,0.3746,470.2764,80.9541)" id="text316" style="font-size: 22.5809px; fill: rgb(255, 255, 255); font-family: Verdana; white-space: pre;"><tspan>25</tspan></text>
      <text transform="matrix(0.3746,-0.9272,0.9272,0.3746,58.502,109.3818)" id="text318" style="font-size: 22.5809px; fill: rgb(255, 255, 255); font-family: Verdana; white-space: pre;"><tspan>29</tspan></text>
      <text transform="matrix(0.7771,-0.6293,0.6293,0.7771,118.2402,16.0195)" id="text320" style="font-size: 22.5795px; fill: rgb(255, 255, 255); font-family: Verdana; white-space: pre;"><tspan>12</tspan></text>
      <text transform="matrix(-0.9136,0.4067,-0.4067,-0.9136,366.707,379.6719)" id="text322" style="font-size: 22.5794px; fill: rgb(255, 255, 255); font-family: Verdana; white-space: pre;"><tspan>8</tspan></text>
      <text transform="matrix(0.8746,0.4848,-0.4848,0.8746,363.5371,-23.2412)" id="text324" style="font-size: 22.5802px; fill: rgb(255, 255, 255); font-family: Verdana; white-space: pre;"><tspan>19</tspan></text>
      <text transform="matrix(-0.2924,-0.9563,0.9563,-0.2924,61.9619,257.4033)" id="text326" style="font-size: 22.5807px; fill: rgb(255, 255, 255); font-family: Verdana; white-space: pre;"><tspan>31</tspan></text>
      <text transform="matrix(0.2079,-0.9781,0.9781,0.2079,49.9077,146.2695)" id="text328" style="font-size: 22.5795px; fill: rgb(255, 255, 255); font-family: Verdana; white-space: pre;"><tspan>18</tspan></text>
      <text transform="matrix(-0.1219,0.9925,-0.9925,-0.1219,488.8633,200.4199)" id="text330" style="font-size: 22.5797px; fill: rgb(255, 255, 255); font-family: Verdana; white-space: pre;"><tspan>6</tspan></text>
      <text transform="matrix(0.6561,0.7547,-0.7547,0.6561,423.6338,21.0464)" id="text332" style="font-size: 22.5811px; fill: rgb(255, 255, 255); font-family: Verdana; white-space: pre;"><tspan>21</tspan></text>
      <text transform="matrix(-0.829,-0.5592,0.5592,-0.829,155.855,369.1963)" id="text334" style="font-size: 22.58px; fill: rgb(255, 255, 255); font-family: Verdana; white-space: pre;"><tspan>33</tspan></text>
      <text transform="matrix(-0.9136,-0.4067,0.4067,-0.9136,189.4722,385.7168)" id="text336" style="font-size: 22.5794px; fill: rgb(255, 255, 255); font-family: Verdana; white-space: pre;"><tspan>16</tspan></text>
      <text transform="matrix(0.7771,0.6293,-0.6293,0.7771,402.8125,2.4663)" id="text338" style="font-size: 22.5795px; fill: rgb(255, 255, 255); font-family: Verdana; white-space: pre;"><tspan>4</tspan></text>
      <text transform="matrix(-0.9659,0.2588,-0.2588,-0.9659,336.9004,389.3203)" id="text340" style="font-size: 22.58px; fill: rgb(255, 255, 255); font-family: Verdana; white-space: pre;"><tspan>23</tspan></text>
      <text transform="matrix(0.8746,-0.4848,0.4848,0.8746,148.4897,-8.0317)" id="text342" style="font-size: 22.5802px; fill: rgb(255, 255, 255); font-family: Verdana; white-space: pre;"><tspan>35</tspan></text>
      <text transform="matrix(-0.454,-0.891,0.891,-0.454,78.7217,289.0557)" id="text344" style="font-size: 22.5806px; fill: rgb(255, 255, 255); font-family: Verdana; white-space: pre;"><tspan>14</tspan></text>
      <text transform="matrix(0.5299,0.848,-0.848,0.5299,452.2266,57.3516)" id="text346" style="font-size: 22.5795px; fill: rgb(255, 255, 255); font-family: Verdana; white-space: pre;"><tspan>2</tspan></text>
    </g>
  </g>
  <path d="M 422.0740966796875 367.5389404296875 C 430.2242736816406 355.5926208496094 437.2535705566406 342.6166687011719 442.94830322265625 328.6854248046875 C 450.9805908203125 309.0357971191406 455.79193115234375 288.8781433105469 457.6412048339844 268.7926940917969 C 463.12225341796875 209.01585388183594 442.2645568847656 149.92274475097656 401.53887939453125 106.85954284667969 C 381.8048095703125 86.00544738769531 357.4053039550781 68.91551971435547 329.0722961425781 57.33370590209961 C 277.3116760253906 36.175289154052734 222.02249145507812 37.3377571105957 173.87451171875 56.373817443847656 C 122.99598693847656 76.47164154052734 80.08631134033203 116.5064926147461 57.72282028198242 171.21514892578125 C 56.616355895996094 173.92193603515625 55.569087982177734 176.6421661376953 54.58480453491211 179.36654663085938 C 33.51207733154297 237.64332580566406 40.090518951416016 299.6219787597656 68.03501892089844 350.3988037109375 C 90.17670440673828 390.6309509277344 125.74129486083984 423.8215026855469 171.59884643554688 442.56689453125 C 264.1361083984375 480.39373779296875 367.9203186035156 446.8705139160156 422.0740966796875 367.5389404296875 Z " id="path365" style="fill: rgb(160, 80, 0); stroke: rgb(0, 0, 0); stroke-width: 0.5px; stroke-linecap: round; stroke-linejoin: round;" transform="matrix(0.9999999999999999, 0, 0, 0.9999999999999999, 0, -3.552713678800501e-15)"/>
  <path d="M 200.78184509277344 98.75623321533203 Z " transform="matrix(0.9999999999999999, 0, 0, 0.9999999999999999, 0, -3.552713678800501e-15)" style="stroke: black; fill: none;"/>
</svg>